# Blender v2.79 (sub 0) OBJ File: ''
# www.blender.org
o Cube_Cube.001
v -0.028923 -0.000057 0.004000
v -0.048615 0.020028 -0.004000
v -0.028923 -0.000056 -0.004000
v -0.028615 0.020028 0.004000
v -0.048615 0.020028 0.004000
v -0.008615 -0.000056 -0.004000
v -0.008615 -0.000057 0.004000
v -0.028615 0.020028 -0.004000
v -0.048615 -0.019972 -0.004000
v -0.028615 -0.019972 0.004000
v -0.048615 -0.019972 0.004000
v -0.028615 -0.019972 -0.004000
v 0.003077 -0.000057 0.004000
v -0.016615 0.020028 -0.004000
v 0.003077 -0.000056 -0.004000
v 0.003385 0.020028 0.004000
v -0.016615 0.020028 0.004000
v 0.023385 -0.000056 -0.004000
v 0.023385 -0.000057 0.004000
v 0.003385 0.020028 -0.004000
v -0.016615 -0.019972 -0.004000
v 0.003385 -0.019972 0.004000
v -0.016615 -0.019972 0.004000
v 0.003385 -0.019972 -0.004000
v 0.035077 -0.000057 0.004000
v 0.015385 0.020028 -0.004000
v 0.035077 -0.000056 -0.004000
v 0.035385 0.020028 0.004000
v 0.015385 0.020028 0.004000
v 0.055385 -0.000056 -0.004000
v 0.055385 -0.000057 0.004000
v 0.035385 0.020028 -0.004000
v 0.015385 -0.019972 -0.004000
v 0.035385 -0.019972 0.004000
v 0.015385 -0.019972 0.004000
v 0.035385 -0.019972 -0.004000
vn -0.4302 0.0009 0.9027
vn -0.7717 0.3241 -0.5472
vn -0.4302 0.0009 -0.9027
vn 0.2979 0.7171 0.6301
vn -0.7717 0.3241 0.5472
vn 0.8165 -0.0017 -0.5773
vn 0.8165 -0.0017 0.5773
vn 0.2979 0.7171 -0.6301
vn -0.7725 -0.3225 -0.5471
vn 0.2963 -0.7175 0.6304
vn -0.7725 -0.3225 0.5471
vn 0.2963 -0.7175 -0.6304
s 1
f 1//1 2//2 3//3
f 1//1 4//4 5//5
f 6//6 4//4 7//7
f 3//3 8//8 6//6
f 9//9 10//10 11//11
f 8//8 5//5 4//4
f 12//12 3//3 6//6
f 12//12 7//7 10//10
f 10//10 1//1 11//11
f 11//11 3//3 9//9
f 13//1 14//2 15//3
f 13//1 16//4 17//5
f 18//6 16//4 19//7
f 15//3 20//8 18//6
f 21//9 22//10 23//11
f 20//8 17//5 16//4
f 24//12 15//3 18//6
f 24//12 19//7 22//10
f 22//10 13//1 23//11
f 23//11 15//3 21//9
f 25//1 26//2 27//3
f 25//1 28//4 29//5
f 30//6 28//4 31//7
f 27//3 32//8 30//6
f 33//9 34//10 35//11
f 32//8 29//5 28//4
f 36//12 27//3 30//6
f 36//12 31//7 34//10
f 34//10 25//1 35//11
f 35//11 27//3 33//9
f 1//1 5//5 2//2
f 1//1 7//7 4//4
f 6//6 8//8 4//4
f 3//3 2//2 8//8
f 9//9 12//12 10//10
f 8//8 2//2 5//5
f 12//12 9//9 3//3
f 12//12 6//6 7//7
f 10//10 7//7 1//1
f 11//11 1//1 3//3
f 13//1 17//5 14//2
f 13//1 19//7 16//4
f 18//6 20//8 16//4
f 15//3 14//2 20//8
f 21//9 24//12 22//10
f 20//8 14//2 17//5
f 24//12 21//9 15//3
f 24//12 18//6 19//7
f 22//10 19//7 13//1
f 23//11 13//1 15//3
f 25//1 29//5 26//2
f 25//1 31//7 28//4
f 30//6 32//8 28//4
f 27//3 26//2 32//8
f 33//9 36//12 34//10
f 32//8 26//2 29//5
f 36//12 33//9 27//3
f 36//12 30//6 31//7
f 34//10 31//7 25//1
f 35//11 25//1 27//3
