# Blender v2.80 (sub 40) OBJ File: 'flagpole.blend'
# www.blender.org
o Cylinder
v 0.000000 0.907928 -0.028178
v 0.000000 -0.907928 -0.028178
v -0.005497 0.907928 -0.027637
v -0.005497 -0.907928 -0.027637
v -0.010783 0.907928 -0.026033
v -0.010783 -0.907928 -0.026033
v -0.015655 0.907928 -0.023429
v -0.015655 -0.907928 -0.023429
v -0.019925 0.907928 -0.019925
v -0.019925 -0.907928 -0.019925
v -0.023429 0.907928 -0.015655
v -0.023429 -0.907928 -0.015655
v -0.026033 0.907928 -0.010783
v -0.026033 -0.907928 -0.010783
v -0.027637 0.907928 -0.005497
v -0.027637 -0.907928 -0.005497
v -0.028178 0.907928 -0.000000
v -0.028178 -0.907928 -0.000000
v -0.027637 0.907928 0.005497
v -0.027637 -0.907928 0.005497
v -0.026033 0.907928 0.010783
v -0.026033 -0.907928 0.010783
v -0.023429 0.907928 0.015655
v -0.023429 -0.907928 0.015655
v -0.019925 0.907928 0.019925
v -0.019925 -0.907928 0.019925
v -0.015655 0.907928 0.023429
v -0.015655 -0.907928 0.023429
v -0.010783 0.907928 0.026033
v -0.010783 -0.907928 0.026033
v -0.005497 0.907928 0.027637
v -0.005497 -0.907928 0.027637
v 0.000000 0.907928 0.028178
v 0.000000 -0.907928 0.028178
v 0.005497 0.907928 0.027637
v 0.005497 -0.907928 0.027637
v 0.010783 0.907928 0.026033
v 0.010783 -0.907928 0.026033
v 0.015655 0.907928 0.023429
v 0.015655 -0.907928 0.023429
v 0.019925 0.907928 0.019925
v 0.019925 -0.907928 0.019925
v 0.023429 0.907928 0.015655
v 0.023429 -0.907928 0.015655
v 0.026033 0.907928 0.010783
v 0.026033 -0.907928 0.010783
v 0.027637 0.907928 0.005497
v 0.027637 -0.907928 0.005497
v 0.028178 0.907928 -0.000000
v 0.028178 -0.907928 -0.000000
v 0.027637 0.907928 -0.005497
v 0.027637 -0.907928 -0.005497
v 0.026033 0.907928 -0.010783
v 0.026033 -0.907928 -0.010783
v 0.023429 0.907928 -0.015655
v 0.023429 -0.907928 -0.015655
v 0.019925 0.907928 -0.019925
v 0.019925 -0.907928 -0.019925
v 0.015655 0.907928 -0.023429
v 0.015655 -0.907928 -0.023429
v 0.010783 0.907928 -0.026033
v 0.010783 -0.907928 -0.026033
v 0.005497 0.907928 -0.027637
v 0.005497 -0.907928 -0.027637
vn -0.0980 0.0000 -0.9952
vn -0.2903 0.0000 -0.9569
vn -0.4714 0.0000 -0.8819
vn -0.6344 0.0000 -0.7730
vn -0.7730 0.0000 -0.6344
vn -0.8819 0.0000 -0.4714
vn -0.9569 0.0000 -0.2903
vn -0.9952 0.0000 -0.0980
vn -0.9952 0.0000 0.0980
vn -0.9569 0.0000 0.2903
vn -0.8819 0.0000 0.4714
vn -0.7730 0.0000 0.6344
vn -0.6344 0.0000 0.7730
vn -0.4714 0.0000 0.8819
vn -0.2903 0.0000 0.9569
vn -0.0980 0.0000 0.9952
vn 0.0980 0.0000 0.9952
vn 0.2903 0.0000 0.9569
vn 0.4714 0.0000 0.8819
vn 0.6344 0.0000 0.7730
vn 0.7730 0.0000 0.6344
vn 0.8819 0.0000 0.4714
vn 0.9569 0.0000 0.2903
vn 0.9952 0.0000 0.0980
vn 0.9952 0.0000 -0.0980
vn 0.9569 0.0000 -0.2903
vn 0.8819 0.0000 -0.4714
vn 0.7730 0.0000 -0.6344
vn 0.6344 0.0000 -0.7730
vn 0.4714 0.0000 -0.8819
vn 0.0000 -1.0000 0.0000
vn 0.2903 0.0000 -0.9569
vn 0.0980 0.0000 -0.9952
vn 0.0000 1.0000 0.0000
s off
f 1//1 2//1 4//1 3//1
f 3//2 4//2 6//2 5//2
f 5//3 6//3 8//3 7//3
f 7//4 8//4 10//4 9//4
f 9//5 10//5 12//5 11//5
f 11//6 12//6 14//6 13//6
f 13//7 14//7 16//7 15//7
f 15//8 16//8 18//8 17//8
f 17//9 18//9 20//9 19//9
f 19//10 20//10 22//10 21//10
f 21//11 22//11 24//11 23//11
f 23//12 24//12 26//12 25//12
f 25//13 26//13 28//13 27//13
f 27//14 28//14 30//14 29//14
f 29//15 30//15 32//15 31//15
f 31//16 32//16 34//16 33//16
f 33//17 34//17 36//17 35//17
f 35//18 36//18 38//18 37//18
f 37//19 38//19 40//19 39//19
f 39//20 40//20 42//20 41//20
f 41//21 42//21 44//21 43//21
f 43//22 44//22 46//22 45//22
f 45//23 46//23 48//23 47//23
f 47//24 48//24 50//24 49//24
f 49//25 50//25 52//25 51//25
f 51//26 52//26 54//26 53//26
f 53//27 54//27 56//27 55//27
f 55//28 56//28 58//28 57//28
f 57//29 58//29 60//29 59//29
f 59//30 60//30 62//30 61//30
f 4//31 2//31 64//31 62//31 60//31 58//31 56//31 54//31 52//31 50//31 48//31 46//31 44//31 42//31 40//31 38//31 36//31 34//31 32//31 30//31 28//31 26//31 24//31 22//31 20//31 18//31 16//31 14//31 12//31 10//31 8//31 6//31
f 61//32 62//32 64//32 63//32
f 63//33 64//33 2//33 1//33
f 1//34 3//34 5//34 7//34 9//34 11//34 13//34 15//34 17//34 19//34 21//34 23//34 25//34 27//34 29//34 31//34 33//34 35//34 37//34 39//34 41//34 43//34 45//34 47//34 49//34 51//34 53//34 55//34 57//34 59//34 61//34 63//34
o Cube_Cube.001
v 0.004176 -0.372824 -0.006068
v 0.004176 -0.856511 -0.006068
v 0.004176 -0.363538 -0.913054
v 0.004176 -0.847225 -0.913054
v -0.004176 -0.372824 -0.006068
v -0.004176 -0.856511 -0.006068
v -0.004176 -0.363538 -0.913054
v -0.004176 -0.847225 -0.913054
v 0.005569 -0.375210 -0.459561
v 0.005569 -0.860077 -0.459561
v -0.005569 -0.375210 -0.459561
v -0.005569 -0.860077 -0.459561
v 0.005569 -0.865216 -0.686307
v -0.005569 -0.380349 -0.686307
v 0.005569 -0.380349 -0.686307
v -0.005569 -0.865216 -0.686307
v 0.005569 -0.374068 -0.232815
v -0.005569 -0.858935 -0.232815
v 0.005569 -0.858935 -0.232815
v -0.005569 -0.374068 -0.232815
v 0.005569 -0.372845 -0.043859
v -0.005569 -0.857712 -0.043859
v 0.005569 -0.857712 -0.043859
v -0.005569 -0.372845 -0.043859
v 0.005569 -0.851931 -0.875262
v -0.005569 -0.367064 -0.875262
v 0.005569 -0.367064 -0.875262
v -0.005569 -0.851931 -0.875262
v 0.005569 -0.772106 -0.006068
v 0.005569 -0.762820 -0.913053
v -0.005569 -0.762820 -0.913053
v -0.005569 -0.772106 -0.006068
v -0.008353 -0.774878 -0.459561
v 0.008353 -0.774878 -0.459561
v -0.008353 -0.780017 -0.686307
v 0.008353 -0.780017 -0.686307
v 0.008353 -0.773736 -0.232815
v -0.008353 -0.773736 -0.232815
v 0.008353 -0.772514 -0.043859
v -0.008353 -0.772514 -0.043859
v -0.008353 -0.766732 -0.875262
v 0.008353 -0.766732 -0.875262
v 0.005569 -0.445083 -0.913053
v -0.005569 -0.445083 -0.913053
v -0.005569 -0.454369 -0.006068
v -0.008353 -0.457141 -0.459561
v 0.008353 -0.457141 -0.459561
v -0.008353 -0.462280 -0.686307
v 0.008353 -0.462280 -0.686307
v 0.008353 -0.455999 -0.232815
v -0.008353 -0.455999 -0.232815
v 0.008353 -0.454777 -0.043859
v -0.008353 -0.454777 -0.043859
v -0.008353 -0.448995 -0.875262
v 0.008353 -0.448995 -0.875262
v 0.005569 -0.454369 -0.006068
v 0.005330 -0.372555 -0.010792
v 0.005330 -0.844169 -0.006068
v 0.005330 -0.848372 -0.908330
v 0.005330 -0.374601 -0.913053
v -0.000000 -0.363284 -0.913054
v 0.000000 -0.847747 -0.913054
v -0.005330 -0.374601 -0.913053
v -0.005330 -0.363707 -0.908330
v -0.005330 -0.857220 -0.010792
v -0.005330 -0.383887 -0.006068
v 0.000000 -0.372570 -0.006068
v 0.000000 -0.857033 -0.006068
v 0.005569 -0.379094 -0.572934
v 0.005569 -0.858772 -0.346188
v -0.005569 -0.373905 -0.346188
v -0.005569 -0.863961 -0.572934
v -0.000000 -0.861269 -0.459561
v 0.000000 -0.374631 -0.459561
v -0.008005 -0.386609 -0.459561
v 0.008005 -0.386609 -0.459561
v 0.005569 -0.863961 -0.572934
v -0.005569 -0.379094 -0.572934
v 0.005569 -0.374593 -0.794956
v -0.005569 -0.859460 -0.794956
v -0.008005 -0.391748 -0.686307
v 0.000000 -0.379770 -0.686307
v -0.000000 -0.866407 -0.686307
v 0.008005 -0.391748 -0.686307
v 0.005569 -0.373905 -0.346188
v -0.005569 -0.858772 -0.346188
v 0.005569 -0.858477 -0.124165
v -0.005569 -0.373610 -0.124165
v 0.008005 -0.385467 -0.232815
v -0.000000 -0.860127 -0.232815
v 0.000000 -0.373489 -0.232815
v -0.008005 -0.385467 -0.232815
v 0.005569 -0.373610 -0.124165
v -0.005569 -0.858477 -0.124165
v 0.005330 -0.857220 -0.010792
v -0.005330 -0.372555 -0.010792
v 0.008005 -0.384245 -0.043859
v 0.000000 -0.858904 -0.043859
v 0.000000 -0.372267 -0.043859
v -0.008005 -0.384245 -0.043859
v 0.005569 -0.859460 -0.794956
v -0.005569 -0.374593 -0.794956
v 0.005330 -0.363707 -0.908330
v -0.005330 -0.848372 -0.908330
v -0.000000 -0.853123 -0.875262
v 0.000000 -0.366485 -0.875262
v -0.008005 -0.378463 -0.875262
v 0.008005 -0.378463 -0.875262
v 0.005569 -0.612931 -0.006068
v 0.005330 -0.834883 -0.913054
v -0.005330 -0.834883 -0.913054
v -0.005330 -0.844169 -0.006068
v -0.008005 -0.847044 -0.459561
v 0.008005 -0.847044 -0.459561
v -0.008005 -0.852183 -0.686307
v 0.008005 -0.852183 -0.686307
v 0.008005 -0.845902 -0.232815
v -0.008005 -0.845902 -0.232815
v 0.008005 -0.844680 -0.043859
v -0.008005 -0.844680 -0.043859
v -0.008005 -0.838898 -0.875262
v 0.008005 -0.838898 -0.875262
v 0.008353 -0.774261 -0.794956
v -0.008005 -0.763309 -0.908330
v -0.008353 -0.773278 -0.124165
v 0.008005 -0.772157 -0.010792
v -0.008353 -0.773574 -0.346188
v 0.008353 -0.773278 -0.124165
v 0.008353 -0.778762 -0.572934
v -0.008353 -0.774261 -0.794956
v 0.008353 -0.773574 -0.346188
v -0.008353 -0.778762 -0.572934
v 0.000000 -0.772106 -0.006068
v -0.008005 -0.772157 -0.010792
v 0.000000 -0.762820 -0.913053
v 0.008005 -0.763309 -0.908330
v 0.005569 -0.603645 -0.913054
v -0.005569 -0.603645 -0.913054
v -0.005569 -0.612931 -0.006068
v -0.008353 -0.615704 -0.459561
v 0.008353 -0.615704 -0.459561
v -0.008353 -0.620842 -0.686307
v 0.008353 -0.620842 -0.686307
v 0.008353 -0.614562 -0.232815
v -0.008353 -0.614562 -0.232815
v 0.008353 -0.613339 -0.043859
v -0.008353 -0.613339 -0.043859
v -0.008353 -0.607558 -0.875262
v 0.008353 -0.607558 -0.875262
v 0.005330 -0.383887 -0.006068
v 0.008005 -0.445572 -0.908330
v 0.000000 -0.445083 -0.913054
v -0.008005 -0.454420 -0.010792
v -0.000000 -0.454369 -0.006068
v -0.008353 -0.461025 -0.572934
v 0.008353 -0.455837 -0.346188
v -0.008353 -0.456524 -0.794956
v 0.008353 -0.461025 -0.572934
v 0.008353 -0.455541 -0.124165
v -0.008353 -0.455837 -0.346188
v 0.008005 -0.454420 -0.010792
v -0.008353 -0.455541 -0.124165
v -0.008005 -0.445572 -0.908330
v 0.008353 -0.456524 -0.794956
v 0.007670 -0.835449 -0.908330
v 0.000000 -0.834935 -0.913053
v -0.007670 -0.844297 -0.010792
v -0.000000 -0.844221 -0.006068
v -0.000000 -0.371999 -0.010792
v 0.000000 -0.858363 -0.010792
v -0.000000 -0.865152 -0.572934
v 0.000000 -0.378515 -0.572934
v -0.008005 -0.850928 -0.572934
v 0.008005 -0.845739 -0.346188
v -0.008005 -0.846427 -0.794956
v 0.000000 -0.374014 -0.794956
v -0.000000 -0.860652 -0.794956
v 0.008005 -0.850928 -0.572934
v 0.008005 -0.845444 -0.124165
v -0.000000 -0.859964 -0.346188
v 0.000000 -0.373326 -0.346188
v -0.008005 -0.845739 -0.346188
v 0.007670 -0.844297 -0.010792
v -0.000000 -0.859668 -0.124165
v 0.000000 -0.373031 -0.124165
v -0.008005 -0.845444 -0.124165
v 0.000000 -0.849516 -0.908330
v 0.000000 -0.363151 -0.908330
v -0.007670 -0.835449 -0.908330
v 0.008005 -0.846427 -0.794956
v 0.008353 -0.615087 -0.794956
v -0.008005 -0.604134 -0.908330
v -0.008353 -0.614103 -0.124165
v 0.008005 -0.612982 -0.010792
v -0.008353 -0.614399 -0.346188
v 0.008353 -0.614103 -0.124165
v 0.008353 -0.619587 -0.572934
v -0.008353 -0.615087 -0.794956
v 0.008353 -0.614399 -0.346188
v -0.008353 -0.619587 -0.572934
v 0.000000 -0.612931 -0.006068
v -0.008005 -0.612982 -0.010792
v -0.000000 -0.603645 -0.913054
v 0.008005 -0.604134 -0.908330
v 0.007670 -0.375053 -0.908330
v 0.000000 -0.374576 -0.913053
v -0.007670 -0.383900 -0.010792
v -0.000000 -0.383862 -0.006068
v -0.008005 -0.390493 -0.572934
v 0.008005 -0.385304 -0.346188
v -0.008005 -0.385992 -0.794956
v 0.008005 -0.390493 -0.572934
v 0.008005 -0.385009 -0.124165
v -0.008005 -0.385304 -0.346188
v 0.007670 -0.383900 -0.010792
v -0.008005 -0.385009 -0.124165
v -0.007670 -0.375053 -0.908330
v 0.008005 -0.385992 -0.794956
vn 0.9999 -0.0047 -0.0108
vn 0.9831 -0.1809 -0.0277
vn 0.9225 -0.1276 -0.3642
vn 0.8923 -0.0035 -0.4514
vn -0.0000 0.0000 -1.0000
vn -0.9999 -0.0047 0.0104
vn -0.9834 -0.1810 0.0109
vn -0.9265 -0.1281 0.3539
vn -0.8924 -0.0035 0.4512
vn 0.0000 0.0000 1.0000
vn 0.1035 0.9946 -0.0080
vn -0.1035 0.9946 -0.0080
vn -0.0844 0.9916 0.0984
vn 0.0844 0.9916 0.0984
vn -0.2095 -0.9777 0.0160
vn 0.2095 -0.9777 0.0160
vn 0.1681 -0.9591 0.2276
vn -0.1681 -0.9591 0.2276
vn -0.2092 -0.9778 0.0108
vn 0.2092 -0.9778 0.0108
vn 0.2091 -0.9773 0.0335
vn -0.2091 -0.9773 0.0335
vn 0.1034 0.9946 -0.0110
vn -0.1034 0.9946 -0.0110
vn -0.1033 0.9941 -0.0341
vn 0.1033 0.9941 -0.0341
vn -1.0000 -0.0048 0.0001
vn -0.9830 -0.1837 0.0020
vn -0.9830 -0.1837 0.0063
vn -1.0000 -0.0048 0.0002
vn 1.0000 -0.0048 -0.0000
vn 0.9830 -0.1837 -0.0003
vn 0.9830 -0.1837 0.0021
vn 1.0000 -0.0048 0.0001
vn -1.0000 -0.0048 -0.0005
vn -0.9828 -0.1837 -0.0172
vn -0.9829 -0.1837 -0.0097
vn -1.0000 -0.0048 -0.0003
vn 0.1029 0.9903 0.0928
vn -0.1029 0.9903 0.0928
vn -0.1032 0.9933 0.0526
vn 0.1032 0.9933 0.0526
vn -0.2084 -0.9738 -0.0913
vn 0.2084 -0.9738 -0.0913
vn 0.2089 -0.9766 -0.0517
vn -0.2089 -0.9766 -0.0517
vn 1.0000 -0.0048 0.0002
vn 0.9830 -0.1837 0.0063
vn 0.9830 -0.1837 0.0020
vn 0.9830 -0.1837 0.0017
vn 0.9830 -0.1837 0.0008
vn -0.2092 -0.9778 0.0113
vn 0.2092 -0.9778 0.0113
vn 0.2092 -0.9779 -0.0014
vn -0.2092 -0.9779 -0.0014
vn 0.1034 0.9946 -0.0114
vn -0.1034 0.9946 -0.0114
vn -0.1034 0.9946 0.0014
vn 0.1034 0.9946 0.0014
vn -0.9830 -0.1837 0.0021
vn -0.9830 -0.1837 -0.0003
vn -1.0000 -0.0048 -0.0000
vn 0.8924 -0.0035 0.4512
vn 0.9265 -0.1281 0.3539
vn 0.9834 -0.1810 0.0109
vn 0.9999 -0.0047 0.0104
vn -0.2092 -0.9779 0.0041
vn 0.2092 -0.9779 0.0041
vn 0.2092 -0.9778 0.0093
vn -0.2092 -0.9778 0.0093
vn 0.1034 0.9946 -0.0042
vn -0.1034 0.9946 -0.0042
vn -0.1034 0.9946 -0.0095
vn 0.1034 0.9946 -0.0095
vn -0.9830 -0.1837 0.0008
vn -0.9830 -0.1837 0.0017
vn -0.1641 -0.9367 -0.3092
vn 0.1641 -0.9367 -0.3092
vn 0.2083 -0.9723 -0.1061
vn -0.2083 -0.9723 -0.1061
vn 0.0848 0.9964 -0.0065
vn -0.0848 0.9964 -0.0065
vn -0.1030 0.9897 0.0998
vn 0.1030 0.9897 0.0998
vn -0.8923 -0.0035 -0.4514
vn -0.9225 -0.1276 -0.3642
vn -0.9831 -0.1809 -0.0277
vn -0.9999 -0.0047 -0.0108
vn 1.0000 -0.0048 -0.0003
vn 0.9829 -0.1837 -0.0097
vn 0.9828 -0.1837 -0.0172
vn 1.0000 -0.0048 -0.0005
vn 1.0000 0.0000 0.0000
vn -0.8888 0.0000 -0.4584
vn -0.9999 -0.0000 -0.0105
vn -1.0000 0.0000 -0.0000
vn 0.8888 0.0000 0.4584
vn 0.9999 -0.0000 0.0105
vn -0.9999 0.0000 0.0105
vn -0.8888 -0.0000 0.4584
vn 0.9999 0.0000 -0.0105
vn 0.8888 -0.0000 -0.4584
vn 0.9786 0.2055 0.0125
vn 0.9999 0.0048 -0.0098
vn 0.8926 0.0036 -0.4508
vn 0.9311 0.1451 -0.3347
vn -0.9786 0.2055 0.0065
vn -0.9999 0.0048 0.0103
vn -0.8925 0.0036 0.4511
vn -0.9268 0.1445 0.3466
vn -0.9779 0.2090 -0.0023
vn -1.0000 0.0049 -0.0001
vn -1.0000 0.0049 -0.0002
vn -0.9779 0.2090 -0.0072
vn 0.9779 0.2090 0.0003
vn 1.0000 0.0049 0.0000
vn 1.0000 0.0049 -0.0001
vn 0.9779 0.2090 -0.0024
vn -0.9777 0.2090 0.0196
vn -1.0000 0.0049 0.0005
vn -1.0000 0.0049 0.0003
vn -0.9779 0.2090 0.0111
vn 0.9779 0.2090 -0.0072
vn 1.0000 0.0049 -0.0002
vn 0.9779 0.2090 -0.0023
vn 0.9779 0.2090 -0.0020
vn 0.9779 0.2090 -0.0009
vn -0.9779 0.2090 -0.0024
vn -1.0000 0.0049 0.0000
vn -0.9779 0.2090 0.0003
vn 0.9268 0.1445 0.3466
vn 0.8925 0.0036 0.4511
vn 0.9999 0.0048 0.0103
vn 0.9786 0.2055 0.0065
vn -0.9779 0.2090 -0.0009
vn -0.9779 0.2090 -0.0020
vn -0.9311 0.1451 -0.3347
vn -0.8926 0.0036 -0.4508
vn -0.9999 0.0048 -0.0098
vn -0.9786 0.2055 0.0125
vn 0.9779 0.2090 0.0111
vn 1.0000 0.0049 0.0003
vn 1.0000 0.0049 0.0005
vn 0.9777 0.2090 0.0196
s off
f 106//35 186//35 229//35 200//35
f 186//36 89//36 123//36 229//36
f 229//37 123//37 68//37 174//37
f 200//38 229//38 174//38 94//38
f 94//39 174//39 230//39 199//39
f 174//39 68//39 126//39 230//39
f 230//39 126//39 72//39 175//39
f 199//39 230//39 175//39 95//39
f 104//40 184//40 231//40 198//40
f 184//41 86//41 129//41 231//41
f 231//42 129//42 70//42 176//42
f 198//43 231//43 176//43 96//43
f 96//44 176//44 232//44 197//44
f 176//44 70//44 132//44 232//44
f 232//44 132//44 66//44 122//44
f 197//44 232//44 122//44 93//44
f 85//45 163//45 233//45 121//45
f 163//46 88//46 160//46 233//46
f 233//47 160//47 69//47 131//47
f 121//48 233//48 131//48 65//48
f 86//49 162//49 234//49 129//49
f 162//50 87//50 159//50 234//50
f 234//51 159//51 66//51 132//51
f 129//52 234//52 132//52 70//52
f 80//53 147//53 235//53 136//53
f 147//54 77//54 141//54 235//54
f 235//55 141//55 74//55 137//55
f 136//56 235//56 137//56 76//56
f 79//57 146//57 236//57 133//57
f 146//58 78//58 142//58 236//58
f 236//59 142//59 75//59 138//59
f 133//60 236//60 138//60 73//60
f 99//61 179//61 237//61 196//61
f 179//62 80//62 136//62 237//62
f 237//63 136//63 76//63 177//63
f 196//64 237//64 177//64 97//64
f 101//65 181//65 238//65 195//65
f 181//66 83//66 134//66 238//66
f 238//67 134//67 74//67 178//67
f 195//68 238//68 178//68 98//68
f 105//69 185//69 239//69 194//69
f 185//70 92//70 144//70 239//70
f 239//71 144//71 80//71 179//71
f 194//72 239//72 179//72 99//72
f 91//73 170//73 240//73 143//73
f 170//74 90//74 166//74 240//74
f 240//75 166//75 78//75 146//75
f 143//76 240//76 146//76 79//76
f 92//77 169//77 241//77 144//77
f 169//78 89//78 165//78 241//78
f 241//79 165//79 77//79 147//79
f 144//80 241//80 147//80 80//80
f 98//81 178//81 242//81 193//81
f 178//82 74//82 141//82 242//82
f 242//83 141//83 77//83 180//83
f 193//68 242//68 180//68 100//68
f 103//65 183//65 243//65 192//65
f 183//84 87//84 151//84 243//84
f 243//85 151//85 83//85 181//85
f 192//65 243//65 181//65 101//65
f 76//86 137//86 244//86 150//86
f 137//87 74//87 134//87 244//87
f 244//88 134//88 83//88 154//88
f 150//89 244//89 154//89 82//89
f 73//90 138//90 245//90 149//90
f 138//91 75//91 135//91 245//91
f 245//92 135//92 84//92 155//92
f 149//93 245//93 155//93 81//93
f 97//61 177//61 246//61 191//61
f 177//94 76//94 150//94 246//94
f 246//95 150//95 82//95 182//95
f 191//96 246//96 182//96 102//96
f 93//97 122//97 247//97 190//97
f 122//98 66//98 159//98 247//98
f 247//99 159//99 87//99 183//99
f 190//100 247//100 183//100 103//100
f 82//101 154//101 248//101 158//101
f 154//102 83//102 151//102 248//102
f 248//103 151//103 87//103 162//103
f 158//104 248//104 162//104 86//104
f 81//105 155//105 249//105 157//105
f 155//106 84//106 152//106 249//106
f 249//107 152//107 88//107 163//107
f 157//108 249//108 163//108 85//108
f 102//96 182//96 250//96 189//96
f 182//109 82//109 158//109 250//109
f 250//110 158//110 86//110 184//110
f 189//96 250//96 184//96 104//96
f 72//111 126//111 251//111 168//111
f 126//112 68//112 123//112 251//112
f 251//113 123//113 89//113 169//113
f 168//114 251//114 169//114 92//114
f 67//115 125//115 252//115 167//115
f 125//116 71//116 128//116 252//116
f 252//117 128//117 90//117 170//117
f 167//118 252//118 170//118 91//118
f 95//119 175//119 253//119 188//119
f 175//120 72//120 168//120 253//120
f 253//121 168//121 92//121 185//121
f 188//122 253//122 185//122 105//122
f 100//123 180//123 254//123 187//123
f 180//124 77//124 165//124 254//124
f 254//125 165//125 89//125 186//125
f 187//126 254//126 186//126 106//126
f 113//127 207//127 255//127 228//127
f 207//127 100//127 187//127 255//127
f 255//127 187//127 106//127 213//127
f 228//127 255//127 213//127 119//127
f 108//128 202//128 256//128 227//128
f 202//128 95//128 188//128 256//128
f 256//129 188//129 105//129 212//129
f 227//129 256//129 212//129 118//129
f 115//130 209//130 257//130 226//130
f 209//130 102//130 189//130 257//130
f 257//130 189//130 104//130 211//130
f 226//130 257//130 211//130 117//130
f 120//131 173//131 258//131 225//131
f 173//131 93//131 190//131 258//131
f 258//132 190//132 103//132 210//132
f 225//132 258//132 210//132 116//132
f 110//130 204//130 259//130 224//130
f 204//130 97//130 191//130 259//130
f 259//130 191//130 102//130 209//130
f 224//130 259//130 209//130 115//130
f 116//127 210//127 260//127 223//127
f 210//127 103//127 192//127 260//127
f 260//127 192//127 101//127 208//127
f 223//127 260//127 208//127 114//127
f 111//127 205//127 261//127 222//127
f 205//127 98//127 193//127 261//127
f 261//127 193//127 100//127 207//127
f 222//127 261//127 207//127 113//127
f 118//130 212//130 262//130 221//130
f 212//130 105//130 194//130 262//130
f 262//130 194//130 99//130 206//130
f 221//130 262//130 206//130 112//130
f 114//127 208//127 263//127 220//127
f 208//127 101//127 195//127 263//127
f 263//127 195//127 98//127 205//127
f 220//127 263//127 205//127 111//127
f 112//130 206//130 264//130 219//130
f 206//130 99//130 196//130 264//130
f 264//130 196//130 97//130 204//130
f 219//130 264//130 204//130 110//130
f 109//44 203//44 265//44 218//44
f 203//44 96//44 197//44 265//44
f 265//44 197//44 93//44 173//44
f 218//44 265//44 173//44 120//44
f 117//133 211//133 266//133 217//133
f 211//133 104//133 198//133 266//133
f 266//134 198//134 96//134 203//134
f 217//134 266//134 203//134 109//134
f 107//39 201//39 267//39 216//39
f 201//39 94//39 199//39 267//39
f 267//39 199//39 95//39 202//39
f 216//39 267//39 202//39 108//39
f 119//135 213//135 268//135 215//135
f 213//135 106//135 200//135 268//135
f 268//136 200//136 94//136 201//136
f 215//136 268//136 201//136 107//136
f 91//137 172//137 269//137 167//137
f 172//138 119//138 215//138 269//138
f 269//139 215//139 107//139 124//139
f 167//140 269//140 124//140 67//140
f 67//39 124//39 270//39 125//39
f 124//39 107//39 216//39 270//39
f 270//39 216//39 108//39 127//39
f 125//39 270//39 127//39 71//39
f 88//141 164//141 271//141 160//141
f 164//142 117//142 217//142 271//142
f 271//143 217//143 109//143 130//143
f 160//144 271//144 130//144 69//144
f 69//44 130//44 272//44 131//44
f 130//44 109//44 218//44 272//44
f 272//44 218//44 120//44 214//44
f 131//44 272//44 214//44 65//44
f 78//145 145//145 273//145 142//145
f 145//146 112//146 219//146 273//146
f 273//147 219//147 110//147 139//147
f 142//148 273//148 139//148 75//148
f 81//149 153//149 274//149 149//149
f 153//150 114//150 220//150 274//150
f 274//151 220//151 111//151 140//151
f 149//152 274//152 140//152 73//152
f 90//153 171//153 275//153 166//153
f 171//154 118//154 221//154 275//154
f 275//155 221//155 112//155 145//155
f 166//156 275//156 145//156 78//156
f 73//157 140//157 276//157 133//157
f 140//158 111//158 222//158 276//158
f 276//151 222//151 113//151 148//151
f 133//159 276//159 148//159 79//159
f 85//160 161//160 277//160 157//160
f 161//150 116//150 223//150 277//150
f 277//150 223//150 114//150 153//150
f 157//161 277//161 153//161 81//161
f 75//162 139//162 278//162 135//162
f 139//146 110//146 224//146 278//146
f 278//163 224//163 115//163 156//163
f 135//164 278//164 156//164 84//164
f 65//165 214//165 279//165 121//165
f 214//166 120//166 225//166 279//166
f 279//167 225//167 116//167 161//167
f 121//168 279//168 161//168 85//168
f 84//169 156//169 280//169 152//169
f 156//163 115//163 226//163 280//163
f 280//163 226//163 117//163 164//163
f 152//170 280//170 164//170 88//170
f 71//171 127//171 281//171 128//171
f 127//172 108//172 227//172 281//172
f 281//173 227//173 118//173 171//173
f 128//174 281//174 171//174 90//174
f 79//175 148//175 282//175 143//175
f 148//176 113//176 228//176 282//176
f 282//177 228//177 119//177 172//177
f 143//178 282//178 172//178 91//178
